<?xml version="1.0" standalone="no"?>
<!DOCTYPE svg PUBLIC "-//W3C//DTD SVG 20010904//EN"
 "http://www.w3.org/TR/2001/REC-SVG-20010904/DTD/svg10.dtd">
<svg version="1.0" xmlns="http://www.w3.org/2000/svg"
 width="256.000000pt" height="256.000000pt" viewBox="0 0 256.000000 256.000000"
 preserveAspectRatio="xMidYMid meet">

<g transform="translate(0.000000,256.000000) scale(0.100000,-0.100000)"
fill="#000000" stroke="none">
<path d="M0 1280 l0 -1280 1280 0 1280 0 0 1280 0 1280 -1280 0 -1280 0 0
-1280z m1825 455 c32 -31 32 -55 1 -55 -16 0 -27 7 -31 21 -11 34 -49 21 -53
-18 -3 -30 -1 -33 22 -33 31 0 36 -29 6 -37 -34 -9 -23 -90 14 -95 11 -2 21
-10 21 -18 0 -11 -14 -16 -51 -18 -45 -3 -52 0 -57 18 -3 14 0 20 10 20 12 0
14 7 9 31 -3 17 -6 37 -6 44 0 8 -8 11 -20 8 -16 -4 -20 0 -20 17 0 13 8 24
18 27 14 3 17 12 14 38 -8 68 73 101 123 50z m-515 -130 c11 -109 15 -125 31
-125 22 0 31 -13 23 -35 -6 -13 -18 -16 -65 -13 -33 2 -60 0 -62 -4 -1 -3 -45
-8 -97 -11 -53 -2 -105 -9 -117 -15 -32 -17 -60 -15 -83 8 -19 19 -20 19 -20
1 0 -23 -25 -47 -35 -32 -4 7 -14 6 -28 -4 -15 -10 -38 -13 -67 -9 -54 6 -84
35 -101 96 -28 107 26 176 139 176 l53 0 -3 -41 c-4 -48 -23 -59 -40 -23 -29
66 -118 22 -118 -57 0 -48 33 -105 68 -118 30 -12 68 10 82 47 11 28 36 32 43
7 3 -12 5 -10 6 7 2 41 28 69 72 76 38 6 39 7 23 25 -22 25 -54 24 -61 0 -6
-24 -34 -36 -44 -20 -25 41 66 94 118 70 27 -12 62 -82 63 -121 0 -37 16 -50
44 -37 20 10 23 17 19 57 -9 92 -24 154 -38 163 -29 16 -17 37 20 37 39 0 40
-2 50 -105 13 -135 15 -143 41 -148 13 -2 24 0 24 4 0 5 7 9 15 9 18 0 18 8 3
122 -7 56 -17 92 -25 95 -7 3 -13 14 -13 24 0 15 7 19 33 19 l33 0 14 -125z
m305 41 c39 -17 55 -42 55 -88 0 -49 -31 -94 -71 -102 -42 -8 -101 20 -113 54
-14 42 10 108 47 130 38 24 39 24 82 6z m405 -359 c92 -48 131 -142 87 -209
-28 -42 -99 -78 -154 -78 -24 0 -43 2 -43 4 0 2 -3 11 -6 19 -3 9 3 16 17 20
20 5 21 10 15 53 -3 26 -6 70 -6 99 l0 52 -30 -5 c-18 -2 -31 0 -31 7 -5 31
-2 36 21 42 42 12 104 10 130 -4z m-173 -33 c4 -10 0 -22 -9 -28 -12 -9 -13
-25 -5 -97 9 -83 10 -86 33 -81 19 3 24 0 24 -17 0 -11 -6 -21 -14 -21 -7 0
-34 -3 -60 -6 -38 -6 -46 -4 -46 9 0 9 7 20 16 25 15 8 16 17 4 90 -11 70 -15
81 -34 84 -11 2 -22 11 -24 20 -2 12 8 19 40 26 62 14 68 14 75 -4z m-131 -25
c26 -24 47 -98 38 -137 -4 -22 -34 -102 -38 -102 -1 0 -19 -6 -40 -14 -29 -10
-48 -11 -68 -4 -54 19 -85 123 -58 193 9 23 8 26 -7 23 -14 -3 -21 -21 -30
-83 -22 -147 -21 -145 -49 -145 -19 0 -28 8 -40 35 -36 88 -77 171 -86 176
-22 14 -3 43 32 50 38 8 54 -4 40 -31 -9 -16 38 -176 48 -165 10 10 28 156 20
161 -14 9 -9 42 8 48 23 9 62 -3 69 -22 5 -13 8 -12 21 7 32 45 98 50 140 10z
m-506 -59 c0 -23 -5 -30 -19 -30 -11 0 -21 4 -23 9 -1 5 -25 7 -51 4 -37 -4
-47 -9 -43 -20 4 -8 6 -23 6 -34 0 -22 38 -27 58 -7 14 14 17 11 26 -25 6 -27
6 -27 -35 -21 l-42 7 7 -44 c4 -24 8 -44 9 -45 9 -5 86 10 81 17 -3 5 4 9 15
9 14 0 23 -9 27 -25 4 -14 5 -28 3 -29 -2 -2 -44 -7 -93 -11 l-89 -8 7 34 c10
52 -14 181 -39 201 -11 9 -17 19 -14 22 8 8 111 23 167 25 40 1 42 0 42 -29z
m-220 -14 c0 -8 -6 -16 -14 -19 -11 -5 -12 -13 -5 -39 5 -18 13 -58 19 -89 8
-43 16 -58 30 -62 31 -8 24 -35 -11 -42 -34 -8 -48 4 -49 40 -1 50 -11 65 -47
65 l-34 0 7 -59 c6 -53 4 -60 -13 -65 -11 -4 -28 -4 -37 0 -19 7 -21 31 -3 36
19 5 0 148 -22 155 -9 4 -20 12 -24 20 -4 7 -17 13 -27 13 -17 0 -20 -7 -20
-54 0 -96 11 -146 31 -146 21 0 35 -18 23 -30 -5 -4 -35 -10 -66 -13 -44 -4
-58 -2 -62 9 -4 9 3 18 19 24 29 11 29 9 13 117 -11 75 -14 83 -34 83 -13 0
-24 -8 -27 -20 -6 -23 -27 -27 -27 -6 0 8 -3 21 -6 30 -4 11 5 17 33 25 58 15
225 18 221 4 -1 -5 1 -26 5 -49 6 -39 7 -40 43 -36 34 4 36 6 31 36 -3 17 -8
41 -12 53 -5 16 -2 22 12 26 35 9 53 7 53 -7z"/>
<path d="M973 1493 c-18 -7 -16 -38 2 -53 20 -17 79 6 71 27 -4 8 -6 19 -6 24
0 9 -46 11 -67 2z"/>
<path d="M1540 1591 c-14 -26 -13 -74 2 -89 18 -18 53 -15 71 6 20 22 22 73 5
90 -19 19 -66 15 -78 -7z"/>
<path d="M1973 1183 c4 -38 7 -85 7 -105 0 -30 4 -38 19 -38 28 0 69 37 76 70
9 41 -26 117 -60 130 -46 18 -48 15 -42 -57z"/>
<path d="M1622 1206 c-32 -34 -42 -62 -42 -110 0 -74 62 -114 103 -68 20 21
37 103 29 135 -13 54 -60 76 -90 43z"/>
</g>
</svg>
